PathFileType	4	(X/Y/Z)	 2.8Hzhigh3min.trc
DataRate	CameraRate	NumFrames	NumMarkers	Units	OrigDataRate	OrigDataStartFrame	OrigNumFrames
200	200	9	35	m	200	751	1000
Frame#	Time	C7			LSH			RSH			MAN			RASI			LASI			HIPR			HIPL			RPSI			LPSI			COX			RTHI1			RTHI2			RTHI3			RTHI4			RSHA1			RSHA2			RSHA3			RSHA4			RHEEL			RMET5			RMET1			RTOE			LTHI1			LTHI2			LTHI3			LTHI4			LSHA1			LSHA2			LSHA3			LSHA4			LHEEL			LMET5			LMET1			LTOE			
		X1	Y1	Z1	X2	Y2	Z2	X3	Y3	Z3	X4	Y4	Z4	X5	Y5	Z5	X6	Y6	Z6	X7	Y7	Z7	X8	Y8	Z8	X9	Y9	Z9	X10	Y10	Z10	X11	Y11	Z11	X12	Y12	Z12	X13	Y13	Z13	X14	Y14	Z14	X15	Y15	Z15	X16	Y16	Z16	X17	Y17	Z17	X18	Y18	Z18	X19	Y19	Z19	X20	Y20	Z20	X21	Y21	Z21	X22	Y22	Z22	X23	Y23	Z23	X24	Y24	Z24	X25	Y25	Z25	X26	Y26	Z26	X27	Y27	Z27	X28	Y28	Z28	X29	Y29	Z29	X30	Y30	Z30	X31	Y31	Z31	X32	Y32	Z32	X33	Y33	Z33	X34	Y34	Z34	X35	Y35	Z35	
751	3.7550	-0.326674	1.674975	-0.563236	-0.280883	1.666897	-0.785443	-0.262137	1.654444	-0.358641	-0.173525	1.622959	-0.570546	-0.154040	1.173543	-0.454814	-0.145399	1.167387	-0.671110	-0.210984	1.225873	-0.409269	-0.211426	1.223438	-0.731694	-0.335965	1.203735	-0.510601	-0.338578	1.197006	-0.625437	-0.344325	1.208961	-0.564756	-0.261583	0.920746	-0.370324	-0.251740	0.863144	-0.358834	-0.187523	0.871977	-0.353031	-0.189209	0.931972	-0.366860	-0.357268	0.478529	-0.348588	-0.368496	0.437419	-0.354148	-0.309078	0.427198	-0.346882	-0.301694	0.466629	-0.344821	-0.432514	0.143845	-0.412628	-0.282685	0.037422	-0.345571	-0.241734	0.045889	-0.424565	-0.215104	0.038519	-0.420318	-0.232804	0.906794	-0.776106	-0.219156	0.847024	-0.783344	-0.155664	0.855228	-0.775931	-0.160335	0.914729	-0.768312	-0.317282	0.446356	-0.791365	-0.331972	0.408562	-0.790672	-0.272072	0.392524	-0.779566	-0.265028	0.436123	-0.781896	-0.438333	0.139231	-0.732485	-0.286084	0.031075	-0.789227	-0.239204	0.039773	-0.710890	-0.213459	0.032488	-0.716582	
752	3.7600	-0.326961	1.677923	-0.563769	-0.281214	1.670264	-0.785453	-0.262814	1.658115	-0.359345	-0.174030	1.626541	-0.570885	-0.153256	1.176868	-0.455100	-0.144868	1.170782	-0.671288	-0.209986	1.229636	-0.409668	-0.210714	1.227403	-0.731895	-0.335162	1.207605	-0.510650	-0.337857	1.200891	-0.625640	-0.343581	1.212982	-0.564841	-0.261547	0.923903	-0.370430	-0.251983	0.866247	-0.358798	-0.187673	0.874833	-0.353135	-0.189123	0.934836	-0.366943	-0.357766	0.480843	-0.348965	-0.368708	0.439650	-0.354531	-0.309263	0.429843	-0.347016	-0.302126	0.469317	-0.344927	-0.430905	0.146278	-0.412666	-0.282425	0.039007	-0.346054	-0.241723	0.047206	-0.424193	-0.215253	0.040294	-0.419458	-0.232952	0.910286	-0.776410	-0.219524	0.850473	-0.783690	-0.156011	0.858437	-0.776177	-0.160475	0.917936	-0.768505	-0.317786	0.449138	-0.791601	-0.332150	0.411226	-0.790941	-0.272075	0.395664	-0.780097	-0.265405	0.439324	-0.782351	-0.436691	0.141542	-0.733236	-0.285552	0.032028	-0.788847	-0.239357	0.040504	-0.711494	-0.213749	0.033630	-0.717686	
753	3.7650	-0.327220	1.680644	-0.564283	-0.281513	1.673372	-0.785455	-0.263484	1.661557	-0.360076	-0.174504	1.629887	-0.571208	-0.152539	1.179934	-0.455410	-0.144414	1.173933	-0.671466	-0.209057	1.233109	-0.410077	-0.210071	1.231038	-0.732099	-0.334435	1.211269	-0.510722	-0.337222	1.204553	-0.625852	-0.342900	1.216795	-0.564951	-0.261482	0.926837	-0.370581	-0.252177	0.869115	-0.358841	-0.187786	0.877485	-0.353271	-0.189022	0.937490	-0.367050	-0.358154	0.482980	-0.349280	-0.368850	0.441692	-0.354919	-0.309349	0.432273	-0.347160	-0.302464	0.471787	-0.345101	-0.429505	0.148529	-0.412769	-0.282167	0.040629	-0.346414	-0.241609	0.048672	-0.423775	-0.215253	0.042183	-0.418617	-0.233106	0.913516	-0.776686	-0.219872	0.853650	-0.783989	-0.156340	0.861401	-0.776415	-0.160628	0.920901	-0.768693	-0.318181	0.451693	-0.791819	-0.332243	0.413675	-0.791197	-0.272019	0.398560	-0.780565	-0.265688	0.442273	-0.782738	-0.435181	0.143708	-0.733946	-0.285029	0.033077	-0.788483	-0.239498	0.041311	-0.712075	-0.214040	0.034847	-0.718732	
754	3.7700	-0.327452	1.683116	-0.564779	-0.281786	1.676228	-0.785459	-0.264132	1.664723	-0.360842	-0.174948	1.632982	-0.571517	-0.151898	1.182728	-0.455746	-0.144033	1.176821	-0.671642	-0.208219	1.236288	-0.410492	-0.209507	1.234321	-0.732300	-0.333794	1.214697	-0.510815	-0.336678	1.207970	-0.626083	-0.342293	1.220363	-0.565084	-0.261390	0.929501	-0.370776	-0.252317	0.871732	-0.358946	-0.187859	0.879895	-0.353424	-0.188903	0.939940	-0.367187	-0.358432	0.484943	-0.349528	-0.368925	0.443552	-0.355319	-0.309346	0.434482	-0.347297	-0.302708	0.474021	-0.345318	-0.428339	0.150572	-0.412919	-0.281871	0.042311	-0.346622	-0.241336	0.050281	-0.423345	-0.215080	0.044151	-0.417826	-0.233267	0.916446	-0.776933	-0.220204	0.856532	-0.784250	-0.156649	0.864103	-0.776636	-0.160784	0.923603	-0.768876	-0.318472	0.454019	-0.792031	-0.332265	0.415900	-0.791441	-0.271913	0.401190	-0.780968	-0.265882	0.444954	-0.783061	-0.433832	0.145706	-0.734594	-0.284515	0.034227	-0.788170	-0.239606	0.042178	-0.712614	-0.214286	0.036100	-0.719678	
755	3.7750	-0.327655	1.685340	-0.565259	-0.282026	1.678795	-0.785479	-0.264755	1.667625	-0.361612	-0.175357	1.635807	-0.571808	-0.151339	1.185240	-0.456102	-0.143725	1.179433	-0.671818	-0.207489	1.239178	-0.410917	-0.209013	1.237240	-0.732507	-0.333242	1.217861	-0.510933	-0.336230	1.211117	-0.626331	-0.341768	1.223660	-0.565235	-0.261280	0.931903	-0.371024	-0.252411	0.874090	-0.359125	-0.187894	0.882077	-0.353620	-0.188771	0.942156	-0.367360	-0.358610	0.486721	-0.349778	-0.368927	0.445250	-0.355674	-0.309273	0.436477	-0.347425	-0.302856	0.476029	-0.345543	-0.427417	0.152369	-0.413108	-0.281509	0.044055	-0.346674	-0.240914	0.052031	-0.422900	-0.214706	0.046213	-0.417122	-0.233436	0.919053	-0.777153	-0.220511	0.859090	-0.784468	-0.156939	0.866515	-0.776841	-0.160943	0.926015	-0.769062	-0.318666	0.456104	-0.792229	-0.332231	0.417899	-0.791671	-0.271776	0.403533	-0.781295	-0.265997	0.447338	-0.783323	-0.432679	0.147527	-0.735180	-0.284011	0.035494	-0.787968	-0.239650	0.043117	-0.713111	-0.214461	0.037378	-0.720506	
756	3.7800	-0.327831	1.687313	-0.565723	-0.282239	1.681110	-0.785524	-0.265333	1.670274	-0.362343	-0.175724	1.638356	-0.572082	-0.150867	1.187477	-0.456475	-0.143486	1.181756	-0.671997	-0.206875	1.241782	-0.411350	-0.208590	1.239801	-0.732722	-0.332782	1.220747	-0.511076	-0.335886	1.213997	-0.626605	-0.341333	1.226676	-0.565411	-0.261152	0.934049	-0.371320	-0.252460	0.876199	-0.359392	-0.187896	0.884031	-0.353862	-0.188631	0.944134	-0.367570	-0.358687	0.488330	-0.350008	-0.368856	0.446790	-0.355983	-0.309143	0.438266	-0.347533	-0.302904	0.477827	-0.345762	-0.426741	0.153902	-0.413329	-0.281074	0.045885	-0.346582	-0.240338	0.053919	-0.422462	-0.214145	0.048346	-0.416509	-0.233607	0.921315	-0.777343	-0.220790	0.861315	-0.784643	-0.157197	0.868623	-0.777031	-0.161097	0.928131	-0.769253	-0.318773	0.457946	-0.792411	-0.332154	0.419666	-0.791880	-0.271618	0.405581	-0.781556	-0.266043	0.449422	-0.783530	-0.431756	0.149177	-0.735686	-0.283527	0.036887	-0.787933	-0.239615	0.044119	-0.713599	-0.214533	0.038685	-0.721251	
757	3.7850	-0.327981	1.689028	-0.566172	-0.282426	1.683104	-0.785588	-0.265863	1.672639	-0.363038	-0.176054	1.640615	-0.572342	-0.150484	1.189443	-0.456863	-0.143315	1.183785	-0.672186	-0.206371	1.244103	-0.411787	-0.208241	1.242013	-0.732942	-0.332420	1.223321	-0.511234	-0.335645	1.216584	-0.626898	-0.340988	1.229372	-0.565622	-0.261008	0.935898	-0.371659	-0.252466	0.878045	-0.359726	-0.187861	0.885755	-0.354156	-0.188480	0.945875	-0.367823	-0.358647	0.489796	-0.350170	-0.368717	0.448194	-0.356245	-0.308970	0.439847	-0.347626	-0.302852	0.479416	-0.345969	-0.426325	0.155176	-0.413586	-0.280568	0.047793	-0.346391	-0.239642	0.055914	-0.422035	-0.213451	0.050543	-0.415973	-0.233772	0.923225	-0.777508	-0.221036	0.863197	-0.784773	-0.157423	0.870423	-0.777205	-0.161242	0.929942	-0.769454	-0.318797	0.459542	-0.792573	-0.332045	0.421207	-0.792062	-0.271461	0.407333	-0.781736	-0.266033	0.451198	-0.783678	-0.431101	0.150624	-0.736082	-0.283082	0.038405	-0.788118	-0.239490	0.045216	-0.714160	-0.214487	0.040028	-0.721997	
758	3.7900	-0.328106	1.690488	-0.566605	-0.282604	1.684830	-0.785692	-0.266339	1.674719	-0.363691	-0.176346	1.642583	-0.572596	-0.150187	1.191140	-0.457261	-0.143206	1.185516	-0.672392	-0.205988	1.246147	-0.412219	-0.207969	1.243891	-0.733167	-0.332154	1.225564	-0.511426	-0.335497	1.218855	-0.627213	-0.340740	1.231731	-0.565861	-0.260850	0.937456	-0.372035	-0.252431	0.879615	-0.360115	-0.187788	0.887236	-0.354493	-0.188322	0.947385	-0.368119	-0.358503	0.491123	-0.350325	-0.368514	0.449472	-0.356458	-0.308759	0.441219	-0.347720	-0.302699	0.480797	-0.346161	-0.426133	0.156195	-0.413827	-0.280033	0.049743	-0.346146	-0.238874	0.057990	-0.421638	-0.212685	0.052743	-0.415507	-0.233922	0.924788	-0.777649	-0.221239	0.864734	-0.784861	-0.157608	0.871917	-0.777367	-0.161367	0.931447	-0.769671	-0.318753	0.460904	-0.792714	-0.331920	0.422532	-0.792216	-0.271316	0.408791	-0.781833	-0.265978	0.452669	-0.783764	-0.430742	0.151828	-0.736320	-0.282713	0.040060	-0.788560	-0.239276	0.046411	-0.714860	-0.214317	0.041430	-0.722829	
759	3.7950	-0.328212	1.691714	-0.567017	-0.282752	1.686238	-0.785830	-0.266759	1.676505	-0.364286	-0.176595	1.644250	-0.572844	-0.149975	1.192582	-0.457662	-0.143149	1.186957	-0.672622	-0.205717	1.247916	-0.412646	-0.207773	1.245451	-0.733402	-0.331975	1.227457	-0.511657	-0.335435	1.220791	-0.627544	-0.340585	1.233734	-0.566128	-0.260687	0.938759	-0.372470	-0.252356	0.880919	-0.360567	-0.187687	0.888507	-0.354897	-0.188163	0.948649	-0.368456	-0.358262	0.492298	-0.350481	-0.368258	0.450632	-0.356619	-0.308516	0.442409	-0.347829	-0.302454	0.481991	-0.346343	-0.426137	0.156990	-0.414074	-0.279524	0.051666	-0.345899	-0.238101	0.060078	-0.421290	-0.211910	0.054881	-0.415119	-0.234045	0.926013	-0.777764	-0.221388	0.865929	-0.784893	-0.157746	0.873107	-0.777526	-0.161469	0.932651	-0.769903	-0.318648	0.462038	-0.792822	-0.331789	0.423654	-0.792334	-0.271193	0.409957	-0.781844	-0.265887	0.453836	-0.783785	-0.430691	0.152792	-0.736387	-0.282454	0.041851	-0.789286	-0.238975	0.047728	-0.715769	-0.214038	0.042917	-0.723837	
